<?xml version="1.0" encoding="UTF-8"?>
<svg xmlns="http://www.w3.org/2000/svg" xmlns:xlink="http://www.w3.org/1999/xlink" viewBox="0 0 64 64" width="100"
    height="100">
    <g id="surface121824">
        <path style=" stroke:none;fill-rule:nonzero;fill:rgb(90.196079%,49.411765%,13.333334%);fill-opacity:1;"
            d="M 5.558594 22.835938 C 0.503906 37.441406 8.246094 53.378906 22.851562 58.433594 C 37.457031 63.484375 53.394531 55.746094 58.449219 41.140625 C 63.503906 26.535156 55.761719 10.597656 41.15625 5.546875 C 26.550781 0.492188 10.613281 8.230469 5.558594 22.835938 Z M 5.558594 22.835938 " />
        <path style=" stroke:none;fill-rule:nonzero;fill:rgb(90.196079%,49.411765%,13.333334%);fill-opacity:1;"
            d="M 48.246094 48.246094 C 39.269531 57.21875 24.714844 57.21875 15.738281 48.238281 C 6.765625 39.261719 6.765625 24.707031 15.746094 15.734375 C 24.722656 6.757812 39.277344 6.761719 48.253906 15.738281 C 50.058594 17.546875 51.554688 19.644531 52.671875 21.941406 C 56.953125 30.757812 55.175781 41.316406 48.246094 48.246094 Z M 48.246094 48.246094 " />
        <path style=" stroke:none;fill-rule:nonzero;fill:rgb(90.196079%,49.411765%,13.333334%);fill-opacity:1;"
            d="M 58.0625 19.324219 C 51.070312 4.925781 33.726562 -1.074219 19.328125 5.921875 C 12.414062 9.277344 7.121094 15.246094 4.605469 22.511719 C -0.636719 37.636719 7.375 54.148438 22.5 59.394531 C 37.628906 64.636719 54.140625 56.625 59.382812 41.5 C 61.929688 34.230469 61.453125 26.242188 58.0625 19.324219 Z M 57.496094 40.808594 C 52.613281 54.890625 37.242188 62.347656 23.160156 57.46875 C 9.082031 52.589844 1.621094 37.21875 6.503906 23.136719 C 11.382812 9.054688 26.753906 1.597656 40.835938 6.476562 C 47.597656 8.820312 53.152344 13.753906 56.273438 20.191406 C 59.398438 26.632812 59.839844 34.046875 57.496094 40.808594 Z M 57.496094 40.808594 " />
        <path style=" stroke:none;fill-rule:nonzero;fill:rgb(90.196079%,49.411765%,13.333334%);fill-opacity:1;"
            d="M 46.125 46.125 C 45.734375 46.515625 45.734375 47.148438 46.125 47.539062 L 47.539062 48.949219 C 47.929688 49.339844 48.5625 49.339844 48.953125 48.949219 C 49.34375 48.5625 49.34375 47.929688 48.953125 47.539062 L 47.539062 46.125 C 47.148438 45.734375 46.515625 45.734375 46.125 46.125 Z M 46.125 46.125 " />
        <path style=" stroke:none;fill-rule:nonzero;fill:rgb(90.196079%,49.411765%,13.333334%);fill-opacity:1;"
            d="M 50.421875 41.941406 C 49.933594 41.683594 49.328125 41.867188 49.070312 42.355469 C 48.824219 42.820312 48.980469 43.394531 49.425781 43.671875 L 51.15625 44.667969 C 51.640625 44.941406 52.253906 44.773438 52.527344 44.292969 C 52.804688 43.8125 52.636719 43.195312 52.152344 42.921875 Z M 50.421875 41.941406 " />
        <path style=" stroke:none;fill-rule:nonzero;fill:rgb(90.196079%,49.411765%,13.333334%);fill-opacity:1;"
            d="M 37.835938 50.910156 C 37.304688 51.050781 36.984375 51.597656 37.128906 52.132812 C 37.128906 52.132812 37.128906 52.136719 37.132812 52.140625 L 37.648438 54.066406 C 37.8125 54.59375 38.371094 54.886719 38.898438 54.722656 C 39.394531 54.566406 39.6875 54.058594 39.574219 53.550781 L 39.058594 51.621094 C 38.921875 51.089844 38.375 50.769531 37.839844 50.90625 C 37.839844 50.910156 37.839844 50.910156 37.835938 50.910156 Z M 37.835938 50.910156 " />
        <path style=" stroke:none;fill-rule:nonzero;fill:rgb(90.196079%,49.411765%,13.333334%);fill-opacity:1;"
            d="M 52.140625 37.128906 C 51.601562 37.007812 51.066406 37.347656 50.945312 37.886719 C 50.835938 38.394531 51.128906 38.902344 51.625 39.058594 L 53.554688 39.574219 C 54.09375 39.695312 54.625 39.355469 54.746094 38.816406 C 54.859375 38.308594 54.566406 37.800781 54.070312 37.644531 Z M 52.140625 37.128906 " />
        <path style=" stroke:none;fill-rule:nonzero;fill:rgb(90.196079%,49.411765%,13.333334%);fill-opacity:1;"
            d="M 42.296875 49.066406 C 41.820312 49.34375 41.660156 49.953125 41.9375 50.429688 L 42.925781 52.152344 C 43.183594 52.640625 43.789062 52.824219 44.277344 52.566406 C 44.765625 52.308594 44.949219 51.703125 44.691406 51.214844 C 44.679688 51.195312 44.667969 51.175781 44.65625 51.15625 L 43.660156 49.425781 C 43.382812 48.949219 42.773438 48.789062 42.296875 49.066406 Z M 42.296875 49.066406 " />
        <path style=" stroke:none;fill-rule:nonzero;fill:rgb(90.196079%,49.411765%,13.333334%);fill-opacity:1;"
            d="M 31.589844 10.289062 C 32.136719 10.214844 32.519531 9.710938 32.441406 9.164062 C 32.382812 8.738281 32.058594 8.398438 31.640625 8.320312 C 30.804688 8.308594 29.96875 8.339844 29.136719 8.417969 C 28.585938 8.4375 28.152344 8.898438 28.171875 9.449219 C 28.191406 10.003906 28.652344 10.433594 29.203125 10.414062 C 29.246094 10.414062 29.285156 10.410156 29.328125 10.402344 C 30.078125 10.324219 30.835938 10.285156 31.589844 10.289062 Z M 31.589844 10.289062 " />
        <path style=" stroke:none;fill-rule:nonzero;fill:rgb(90.196079%,49.411765%,13.333334%);fill-opacity:1;"
            d="M 11.449219 24.421875 C 13.664062 18.066406 18.785156 13.148438 25.230469 11.195312 C 25.757812 11.035156 26.058594 10.480469 25.902344 9.949219 C 25.742188 9.421875 25.1875 9.121094 24.65625 9.277344 C 17.621094 11.421875 12.027344 16.789062 9.597656 23.730469 C 9.402344 24.246094 9.660156 24.824219 10.175781 25.019531 C 10.691406 25.214844 11.269531 24.957031 11.464844 24.441406 C 11.472656 24.425781 11.480469 24.40625 11.484375 24.386719 Z M 11.449219 24.421875 " />
        <path style=" stroke:none;fill-rule:nonzero;fill:rgb(100%,97.254902%,93.333334%);fill-opacity:1;"
            d="M 42.007812 23.207031 C 41.925781 22.890625 41.789062 22.617188 41.601562 22.398438 L 30.335938 33.78125 L 31.789062 35.210938 L 40.25 26.628906 C 40.273438 26.605469 42.097656 24.804688 42.007812 23.207031 Z M 42.007812 23.207031 " />
        <path style=" stroke:none;fill-rule:nonzero;fill:rgb(100%,97.254902%,93.333334%);fill-opacity:1;"
            d="M 31.085938 35.5 L 29.722656 34.160156 L 27.964844 35.980469 Z M 31.085938 35.5 " />
        <path style=" stroke:none;fill-rule:nonzero;fill:rgb(100%,97.254902%,93.333334%);fill-opacity:1;"
            d="M 31.707031 36.109375 L 27.160156 36.808594 L 18.828125 45.433594 L 22.324219 48.871094 L 22.5 48.875 L 21.625 45.25 C 21.625 45.25 26.445312 43.0625 32.890625 37.277344 Z M 31.707031 36.109375 " />
        <path style=" stroke:none;fill-rule:nonzero;fill:rgb(100%,97.254902%,93.333334%);fill-opacity:1;"
            d="M 18.34375 45.9375 L 15.625 48.75 L 21.308594 48.851562 Z M 18.34375 45.9375 " />
        <path style=" stroke:none;fill-rule:nonzero;fill:rgb(100%,97.254902%,93.333334%);fill-opacity:1;"
            d="M 40.742188 27.125 L 32.289062 35.703125 L 33.410156 36.804688 C 33.523438 36.703125 33.636719 36.605469 33.75 36.5 C 39.84375 30.851562 41.121094 28.441406 41.769531 25.878906 C 41.285156 26.589844 40.785156 27.085938 40.742188 27.125 Z M 40.742188 27.125 " />
        <path style=" stroke:none;fill-rule:nonzero;fill:rgb(100%,97.254902%,93.333334%);fill-opacity:1;"
            d="M 29.835938 33.289062 L 41.046875 21.960938 C 40.171875 21.5 38.820312 21.558594 37.25 22.125 C 34.125 23.25 30.375 27.375 30.375 27.375 L 27.367188 30.863281 Z M 29.835938 33.289062 " />
        <path style=" stroke:none;fill-rule:nonzero;fill:rgb(100%,97.254902%,93.333334%);fill-opacity:1;"
            d="M 26.910156 31.394531 L 24.125 34.625 L 29.230469 33.675781 Z M 26.910156 31.394531 " />
        <path style=" stroke:none;fill-rule:nonzero;fill:rgb(100%,97.254902%,93.333334%);fill-opacity:1;"
            d="M 43.5 19.742188 C 43.433594 19.675781 43.398438 19.582031 43.402344 19.488281 C 43.402344 19.390625 43.445312 19.300781 43.515625 19.238281 L 47.535156 15.640625 C 46.8125 15.089844 45.917969 14.75 44.9375 14.75 C 42.554688 14.75 40.625 16.679688 40.625 19.0625 C 40.625 21.445312 42.554688 23.375 44.9375 23.375 C 45.550781 23.375 46.132812 23.242188 46.660156 23.011719 Z M 43.5 19.742188 " />
        <path style=" stroke:none;fill-rule:nonzero;fill:rgb(100%,97.254902%,93.333334%);fill-opacity:1;"
            d="M 44.253906 19.519531 L 47.300781 22.664062 C 48.472656 21.894531 49.25 20.570312 49.25 19.0625 C 49.25 17.914062 48.792969 16.878906 48.0625 16.105469 Z M 48.1875 20.40625 C 48.128906 20.53125 48.003906 20.601562 47.875 20.601562 C 47.824219 20.601562 47.769531 20.589844 47.71875 20.5625 C 47.546875 20.476562 47.476562 20.265625 47.5625 20.09375 C 47.972656 19.277344 47.699219 18.679688 47.6875 18.652344 C 47.605469 18.480469 47.675781 18.269531 47.847656 18.1875 C 48.019531 18.105469 48.226562 18.171875 48.3125 18.34375 C 48.332031 18.378906 48.761719 19.261719 48.1875 20.40625 Z M 48.1875 20.40625 " />
    </g>
</svg>